<svg width="720" height="424" viewBox="0 0 720 424" fill="none" xmlns="http://www.w3.org/2000/svg">
<path d="M218.695 199.819L109.287 388.392C109.287 388.392 105.868 393.769 102.52 395.81C98.9198 398.005 92.0361 398.394 92.0361 398.394H13.122C13.122 398.394 3.6466 396.803 1.07938 392.411C-1.34925 388.257 1.07943 379.008 1.07943 379.008L207.68 21.1648C207.68 21.1648 215.194 7.4115 224.929 7.28024C234.79 7.14727 242.363 21.1648 242.363 21.1648L338.271 181.595L351.16 204.121C351.16 204.121 356.077 396.949 352.718 395.689C349.359 394.429 340.961 383.092 340.961 383.092L329.623 365.876L233.855 199.253C233.855 199.253 230.737 193.34 226.398 193.444C222.004 193.549 218.695 199.819 218.695 199.819Z" fill="white"/>
<path d="M625.136 168.439C658.469 187.684 658.469 235.796 625.136 255.041L457.886 351.603C424.552 370.848 382.886 346.792 382.886 308.302L382.886 115.178C382.886 76.6883 424.552 52.6321 457.886 71.8771L625.136 168.439Z" fill="white"/>
<path d="M331.925 80.1196C331.925 18.5691 398.527 -19.9256 451.86 10.7993L679.943 142.197C733.363 172.972 733.363 250.061 679.943 280.836L451.86 412.233C398.527 442.958 331.925 404.464 331.925 342.914V80.1196ZM449.699 41.5649C409.699 18.2561 359.49 47.1103 359.49 93.4057V331.67C359.49 377.966 409.699 406.819 449.699 383.51L654.138 264.378C693.86 241.232 693.859 183.845 654.138 160.698L449.699 41.5649Z" fill="white"/>
</svg>
