<svg width="720" height="424" viewBox="0 0 720 424" fill="none" xmlns="http://www.w3.org/2000/svg">
<path d="M218.695 199.818L109.287 388.391C109.287 388.391 105.868 393.768 102.52 395.809C98.9198 398.004 92.0361 398.393 92.0361 398.393H13.122C13.122 398.393 3.6466 396.802 1.07938 392.41C-1.34925 388.256 1.07943 379.007 1.07943 379.007L207.68 21.1638C207.68 21.1638 215.194 7.41052 224.929 7.27926C234.79 7.1463 242.363 21.1638 242.363 21.1638L338.271 181.594L351.16 204.12C351.16 204.12 356.077 396.948 352.718 395.688C349.359 394.428 340.961 383.091 340.961 383.091L329.623 365.875L233.855 199.252C233.855 199.252 230.737 193.339 226.398 193.443C222.004 193.548 218.695 199.818 218.695 199.818Z" fill="url(#paint0_linear_2060_2)"/>
<path d="M625.136 168.438C658.469 187.683 658.469 235.796 625.136 255.041L457.886 351.602C424.552 370.847 382.886 346.791 382.886 308.301L382.886 115.177C382.886 76.6873 424.552 52.6311 457.886 71.8762L625.136 168.438Z" fill="url(#paint1_linear_2060_2)"/>
<path d="M331.925 80.1196C331.925 18.5691 398.527 -19.9256 451.86 10.7993L679.943 142.197C733.363 172.972 733.363 250.061 679.943 280.836L451.86 412.233C398.527 442.958 331.925 404.464 331.925 342.914V80.1196ZM449.699 41.5649C409.699 18.2561 359.49 47.1103 359.49 93.4057V331.67C359.49 377.966 409.699 406.819 449.699 383.51L654.138 264.378C693.86 241.232 693.859 183.845 654.138 160.698L449.699 41.5649Z" fill="url(#paint2_linear_2060_2)"/>
<defs>
<linearGradient id="paint0_linear_2060_2" x1="176.946" y1="7.27832" x2="176.946" y2="398.393" gradientUnits="userSpaceOnUse">
<stop stop-color="#F14911"/>
<stop offset="0.653846" stop-color="#F98102"/>
</linearGradient>
<linearGradient id="paint1_linear_2060_2" x1="700.136" y1="211.739" x2="277.136" y2="211.739" gradientUnits="userSpaceOnUse">
<stop stop-color="#F14911"/>
<stop offset="0.653846" stop-color="#F98102"/>
</linearGradient>
<linearGradient id="paint2_linear_2060_2" x1="525.967" y1="0" x2="525.967" y2="423.032" gradientUnits="userSpaceOnUse">
<stop stop-color="#F14911"/>
<stop offset="0.653846" stop-color="#F98102"/>
</linearGradient>
</defs>
</svg>
